<svg width="49" height="54" viewBox="0 0 49 54" fill="none" xmlns="http://www.w3.org/2000/svg">
<path fill-rule="evenodd" clip-rule="evenodd" d="M3.49999 47.1281C2.14899 47.1281 1.04999 46.292 1.04999 45.2642V22.3658C1.04999 21.338 2.14899 20.502 3.49999 20.502H45.5C46.851 20.502 47.95 21.338 47.95 22.3658V45.2642C47.95 46.292 46.851 47.1281 45.5 47.1281H3.49999Z" fill="#EE5060"/>
<path fill-rule="evenodd" clip-rule="evenodd" d="M5.59998 47.9263C4.90774 47.9263 4.23105 48.0824 3.65548 48.375C3.07991 48.6676 2.63131 49.0834 2.3664 49.57C2.10149 50.0565 2.03218 50.5918 2.16723 51.1083C2.30228 51.6248 2.63562 52.0993 3.1251 52.4717C3.61459 52.844 4.23823 53.0976 4.91716 53.2004C5.59609 53.3031 6.29983 53.2504 6.93937 53.0488C7.57891 52.8473 8.12554 52.506 8.51012 52.0682C8.8947 51.6303 9.09998 51.1155 9.09998 50.5889V47.9263H5.59998Z" fill="#2C2D32"/>
<path d="M5.60001 52.1877C6.75981 52.1877 7.70001 51.4723 7.70001 50.5899C7.70001 49.7075 6.75981 48.9922 5.60001 48.9922C4.4402 48.9922 3.5 49.7075 3.5 50.5899C3.5 51.4723 4.4402 52.1877 5.60001 52.1877Z" fill="#495E74"/>
<path fill-rule="evenodd" clip-rule="evenodd" d="M43.4 47.9263C44.0923 47.9263 44.769 48.0824 45.3445 48.375C45.9201 48.6676 46.3687 49.0834 46.6336 49.57C46.8985 50.0565 46.9678 50.5918 46.8328 51.1083C46.6977 51.6248 46.3644 52.0993 45.8749 52.4717C45.3854 52.844 44.7618 53.0976 44.0828 53.2004C43.4039 53.3031 42.7002 53.2504 42.0606 53.0488C41.4211 52.8473 40.8745 52.506 40.4899 52.0682C40.1053 51.6303 39.9 51.1155 39.9 50.5889V47.9263H43.4Z" fill="#2C2D32"/>
<path d="M43.4 52.1877C44.5598 52.1877 45.5 51.4723 45.5 50.5899C45.5 49.7075 44.5598 48.9922 43.4 48.9922C42.2402 48.9922 41.3 49.7075 41.3 50.5899C41.3 51.4723 42.2402 52.1877 43.4 52.1877Z" fill="#495E74"/>
<path fill-rule="evenodd" clip-rule="evenodd" d="M33.6 19.7033V3.72765C33.6 3.30395 33.3787 2.89761 32.9849 2.598C32.5911 2.2984 32.0569 2.13009 31.5 2.13009H17.5C16.943 2.13009 16.4089 2.2984 16.0151 2.598C15.6212 2.89761 15.4 3.30395 15.4 3.72765V19.7033H12.6V2.66261C12.6 1.95644 12.9687 1.2792 13.6251 0.77986C14.2815 0.280524 15.1717 0 16.1 0L32.9 0C33.8282 0 34.7185 0.280524 35.3748 0.77986C36.0312 1.2792 36.4 1.95644 36.4 2.66261V19.7033H33.6Z" fill="#495E74"/>
<path fill-rule="evenodd" clip-rule="evenodd" d="M36.3706 3.19516V2.44217C36.2215 1.07677 34.734 0 32.9 0H16.1C15.1717 0 14.2815 0.280526 13.6251 0.779867C12.9687 1.27921 12.6 1.95646 12.6 2.66263V4.79274C12.6 5.07521 12.7475 5.34611 13.01 5.54584C13.2726 5.74558 13.6287 5.85779 14 5.85779C14.3713 5.85779 14.7274 5.74558 14.9899 5.54584C15.2525 5.34611 15.4 5.07521 15.4 4.79274V3.72768C15.4 3.30398 15.6212 2.89763 16.0151 2.59802C16.4089 2.29842 16.943 2.1301 17.5 2.1301H31.5C32.0569 2.1301 32.5911 2.29842 32.9849 2.59802C33.3787 2.89763 33.6 3.30398 33.6 3.72768V4.79274C33.6 5.07521 33.7475 5.34611 34.01 5.54584C34.2726 5.74558 34.6287 5.85779 35 5.85779C35.3713 5.85779 35.7274 5.74558 35.9899 5.54584C36.2525 5.34611 36.4 5.07521 36.4 4.79274V3.19516H36.3706Z" fill="#2C2D32"/>
<path fill-rule="evenodd" clip-rule="evenodd" d="M33.6294 19.7031H39.242L43.4 22.8663L30.7517 32.4884L23.7874 27.1904L33.6294 19.7031Z" fill="#EBECED"/>
<path fill-rule="evenodd" clip-rule="evenodd" d="M12.6 19.7031H15.4V44.7317H12.6V19.7031ZM33.6 19.7031H36.4V44.7317H33.6V19.7031Z" fill="#B25A59"/>
<path fill-rule="evenodd" clip-rule="evenodd" d="M15.4 32.4839H12.6C12.2287 32.4839 11.8726 32.5961 11.6101 32.7959C11.3475 32.9956 11.2 33.2666 11.2 33.5491V35.6794C11.2 35.9619 11.3475 36.2328 11.6101 36.4326C11.8726 36.6323 12.2287 36.7446 12.6 36.7446H15.4C15.7713 36.7446 16.1274 36.6323 16.3899 36.4326C16.6525 36.2328 16.8 35.9619 16.8 35.6794V33.5491C16.8 33.2666 16.6525 32.9956 16.3899 32.7959C16.1274 32.5961 15.7713 32.4839 15.4 32.4839ZM15.4 35.6794H12.6V33.5491H15.4V35.6794Z" fill="#F0C419"/>
<path fill-rule="evenodd" clip-rule="evenodd" d="M35 42.6019L33.6 41.5369V47.9271H36.4V41.5369L35 42.6019ZM12.6 41.5369V47.9271H15.4V41.5369L14 42.6019L12.6 41.5369ZM14 32.484C14.1856 32.484 14.3637 32.4279 14.4949 32.328C14.6262 32.2282 14.7 32.0927 14.7 31.9515C14.7 31.8103 14.6262 31.6748 14.4949 31.5749C14.3637 31.4751 14.1856 31.419 14 31.419C13.8143 31.419 13.6363 31.4751 13.505 31.5749C13.3737 31.6748 13.3 31.8103 13.3 31.9515C13.3 32.0927 13.3737 32.2282 13.505 32.328C13.6363 32.4279 13.8143 32.484 14 32.484ZM14 29.8214C14.1856 29.8214 14.3637 29.7653 14.4949 29.6654C14.6262 29.5656 14.7 29.4301 14.7 29.2889C14.7 29.1477 14.6262 29.0122 14.4949 28.9123C14.3637 28.8125 14.1856 28.7564 14 28.7564C13.8143 28.7564 13.6363 28.8125 13.505 28.9123C13.3737 29.0122 13.3 29.1477 13.3 29.2889C13.3 29.4301 13.3737 29.5656 13.505 29.6654C13.6363 29.7653 13.8143 29.8214 14 29.8214ZM14 27.1588C14.1856 27.1588 14.3637 27.1027 14.4949 27.0028C14.6262 26.903 14.7 26.7675 14.7 26.6263C14.7 26.485 14.6262 26.3496 14.4949 26.2497C14.3637 26.1499 14.1856 26.0938 14 26.0938C13.8143 26.0938 13.6363 26.1499 13.505 26.2497C13.3737 26.3496 13.3 26.485 13.3 26.6263C13.3 26.7675 13.3737 26.903 13.505 27.0028C13.6363 27.1027 13.8143 27.1588 14 27.1588ZM14 24.4962C14.1856 24.4962 14.3637 24.4401 14.4949 24.3402C14.6262 24.2404 14.7 24.1049 14.7 23.9637C14.7 23.8224 14.6262 23.687 14.4949 23.5871C14.3637 23.4873 14.1856 23.4312 14 23.4312C13.8143 23.4312 13.6363 23.4873 13.505 23.5871C13.3737 23.687 13.3 23.8224 13.3 23.9637C13.3 24.1049 13.3737 24.2404 13.505 24.3402C13.6363 24.4401 13.8143 24.4962 14 24.4962ZM35 32.484C35.1856 32.484 35.3637 32.4279 35.4949 32.328C35.6262 32.2282 35.7 32.0927 35.7 31.9515C35.7 31.8103 35.6262 31.6748 35.4949 31.5749C35.3637 31.4751 35.1856 31.419 35 31.419C34.8143 31.419 34.6363 31.4751 34.505 31.5749C34.3737 31.6748 34.3 31.8103 34.3 31.9515C34.3 32.0927 34.3737 32.2282 34.505 32.328C34.6363 32.4279 34.8143 32.484 35 32.484ZM35 29.8214C35.1856 29.8214 35.3637 29.7653 35.4949 29.6654C35.6262 29.5656 35.7 29.4301 35.7 29.2889C35.7 29.1477 35.6262 29.0122 35.4949 28.9123C35.3637 28.8125 35.1856 28.7564 35 28.7564C34.8143 28.7564 34.6363 28.8125 34.505 28.9123C34.3737 29.0122 34.3 29.1477 34.3 29.2889C34.3 29.4301 34.3737 29.5656 34.505 29.6654C34.6363 29.7653 34.8143 29.8214 35 29.8214ZM35 27.1588C35.1856 27.1588 35.3637 27.1027 35.4949 27.0028C35.6262 26.903 35.7 26.7675 35.7 26.6263C35.7 26.485 35.6262 26.3496 35.4949 26.2497C35.3637 26.1499 35.1856 26.0938 35 26.0938C34.8143 26.0938 34.6363 26.1499 34.505 26.2497C34.3737 26.3496 34.3 26.485 34.3 26.6263C34.3 26.7675 34.3737 26.903 34.505 27.0028C34.6363 27.1027 34.8143 27.1588 35 27.1588ZM35 24.4962C35.1856 24.4962 35.3637 24.4401 35.4949 24.3402C35.6262 24.2404 35.7 24.1049 35.7 23.9637C35.7 23.8224 35.6262 23.687 35.4949 23.5871C35.3637 23.4873 35.1856 23.4312 35 23.4312C34.8143 23.4312 34.6363 23.4873 34.505 23.5871C34.3737 23.687 34.3 23.8224 34.3 23.9637C34.3 24.1049 34.3737 24.2404 34.505 24.3402C34.6363 24.4401 34.8143 24.4962 35 24.4962ZM14 35.1466C14.1856 35.1466 14.3637 35.0905 14.4949 34.9906C14.6262 34.8908 14.7 34.7553 14.7 34.6141C14.7 34.4729 14.6262 34.3374 14.4949 34.2375C14.3637 34.1377 14.1856 34.0816 14 34.0816C13.8143 34.0816 13.6363 34.1377 13.505 34.2375C13.3737 34.3374 13.3 34.4729 13.3 34.6141C13.3 34.7553 13.3737 34.8908 13.505 34.9906C13.6363 35.0905 13.8143 35.1466 14 35.1466ZM35 35.1466C35.1856 35.1466 35.3637 35.0905 35.4949 34.9906C35.6262 34.8908 35.7 34.7553 35.7 34.6141C35.7 34.4729 35.6262 34.3374 35.4949 34.2375C35.3637 34.1377 35.1856 34.0816 35 34.0816C34.8143 34.0816 34.6363 34.1377 34.505 34.2375C34.3737 34.3374 34.3 34.4729 34.3 34.6141C34.3 34.7553 34.3737 34.8908 34.505 34.9906C34.6363 35.0905 34.8143 35.1466 35 35.1466Z" fill="#90241D"/>
<path fill-rule="evenodd" clip-rule="evenodd" d="M15.4 33.549V35.6793H12.6L11.6102 36.4324C11.8636 36.6252 12.2136 36.7445 12.6 36.7445H15.4C15.7713 36.7445 16.1274 36.6323 16.39 36.4325C16.6525 36.2328 16.8 35.9618 16.8 35.6793V33.549C16.8 33.255 16.6432 32.9887 16.3898 32.7959L15.4 33.549Z" fill="#FCF062"/>
<path fill-rule="evenodd" clip-rule="evenodd" d="M36.4 32.4839H33.6C33.2287 32.4839 32.8726 32.5961 32.6101 32.7959C32.3475 32.9956 32.2 33.2666 32.2 33.5491V35.6794C32.2 35.9619 32.3475 36.2328 32.6101 36.4326C32.8726 36.6323 33.2287 36.7446 33.6 36.7446H36.4C36.7713 36.7446 37.1274 36.6323 37.3899 36.4326C37.6525 36.2328 37.8 35.9619 37.8 35.6794V33.5491C37.8 33.2666 37.6525 32.9956 37.3899 32.7959C37.1274 32.5961 36.7713 32.4839 36.4 32.4839ZM36.4 35.6794H33.6V33.5491H36.4V35.6794Z" fill="#F0C419"/>
<path fill-rule="evenodd" clip-rule="evenodd" d="M36.4 33.549V35.6793H33.6L32.6102 36.4324C32.8636 36.6252 33.2136 36.7445 33.6 36.7445H36.4C36.7713 36.7445 37.1274 36.6323 37.39 36.4325C37.6525 36.2328 37.8 35.9618 37.8 35.6793V33.549C37.8 33.255 37.6432 32.9887 37.3898 32.7959L36.4 33.549Z" fill="#FCF062"/>
<path d="M45.5 21.3007C46.2721 21.3007 46.9 21.7784 46.9 22.3657V45.2642C46.9 45.8515 46.2721 46.3292 45.5 46.3292H3.5C2.7279 46.3292 2.1 45.8515 2.1 45.2642V22.3657C2.1 21.7784 2.7279 21.3007 3.5 21.3007H45.5ZM45.5 19.7031H3.5C2.57174 19.7031 1.6815 19.9836 1.02513 20.483C0.368749 20.9823 0 21.6596 0 22.3657V45.2642C0 45.9703 0.368749 46.6476 1.02513 47.1469C1.6815 47.6462 2.57174 47.9268 3.5 47.9268H45.5C46.4283 47.9268 47.3185 47.6462 47.9749 47.1469C48.6313 46.6476 49 45.9703 49 45.2642V22.3657C49 21.6596 48.6313 20.9823 47.9749 20.483C47.3185 19.9836 46.4283 19.7031 45.5 19.7031Z" fill="#B25A59"/>
</svg>
